<?xml version="1.0" encoding="utf-8"?>
<!-- Uploaded to: SVG Repo, www.svgrepo.com, Generator: SVG Repo Mixer Tools -->
<svg width="800px" height="800px" viewBox="0 0 1024 1024" class="icon"  version="1.1" xmlns="http://www.w3.org/2000/svg"><path d="M614.4 332.8c0 14.08-11.52 25.6-25.6 25.6H435.2c-14.08 0-25.6-11.52-25.6-25.6v-102.4c0-14.08 11.52-25.6 25.6-25.6h153.6c14.08 0 25.6 11.52 25.6 25.6v102.4z" fill="#FFFAD5" /><path d="M588.8 371.2H435.2c-21.76 0-38.4-16.64-38.4-38.4v-102.4c0-21.76 16.64-38.4 38.4-38.4h153.6c21.76 0 38.4 16.64 38.4 38.4v102.4c0 21.76-16.64 38.4-38.4 38.4zM435.2 217.6c-7.68 0-12.8 5.12-12.8 12.8v102.4c0 7.68 5.12 12.8 12.8 12.8h153.6c7.68 0 12.8-5.12 12.8-12.8v-102.4c0-7.68-5.12-12.8-12.8-12.8H435.2z" fill="#231C1C" /><path d="M896 742.4c0 14.08-11.52 25.6-25.6 25.6H166.4c-14.08 0-25.6-11.52-25.6-25.6V307.2c0-14.08 11.52-25.6 25.6-25.6h704c14.08 0 25.6 11.52 25.6 25.6v435.2z" fill="#C89005" /><path d="M870.4 780.8H166.4c-21.76 0-38.4-16.64-38.4-38.4V307.2c0-21.76 16.64-38.4 38.4-38.4h704c21.76 0 38.4 16.64 38.4 38.4v435.2c0 21.76-16.64 38.4-38.4 38.4zM166.4 294.4c-7.68 0-12.8 5.12-12.8 12.8v435.2c0 7.68 5.12 12.8 12.8 12.8h704c7.68 0 12.8-5.12 12.8-12.8V307.2c0-7.68-5.12-12.8-12.8-12.8H166.4z" fill="#231C1C" /><path d="M281.6 281.6h76.8v486.4h-76.8z" fill="#FFFAD5" /><path d="M358.4 780.8h-76.8c-7.68 0-12.8-5.12-12.8-12.8V281.6c0-7.68 5.12-12.8 12.8-12.8h76.8c7.68 0 12.8 5.12 12.8 12.8v486.4c0 7.68-5.12 12.8-12.8 12.8z m-64-25.6h51.2V294.4h-51.2v460.8z" fill="#231C1C" /><path d="M678.4 281.6h76.8v486.4h-76.8z" fill="#FFFAD5" /><path d="M755.2 780.8h-76.8c-7.68 0-12.8-5.12-12.8-12.8V281.6c0-7.68 5.12-12.8 12.8-12.8h76.8c7.68 0 12.8 5.12 12.8 12.8v486.4c0 7.68-5.12 12.8-12.8 12.8z m-64-25.6h51.2V294.4h-51.2v460.8z" fill="#231C1C" /></svg>