<?xml version="1.0" ?><!-- Uploaded to: SVG Repo, www.svgrepo.com, Generator: SVG Repo Mixer Tools -->
<svg width="800px" height="800px" viewBox="0 0 82 82" fill="none" xmlns="http://www.w3.org/2000/svg"><path clip-rule="evenodd" d="M40.8586 0C18.4183 0 0.227539 18.1908 0.227539 40.6301C0.227539 63.0704 18.4183 81.2612 40.8586 81.2612C63.2979 81.2612 81.4887 63.0704 81.4887 40.6301C81.4887 18.1908 63.2979 0 40.8586 0V0Z" fill="url(#paint0_radial)" fill-rule="evenodd"/><path clip-rule="evenodd" d="M11.7234 35.7064C22.5206 36.4316 28.2416 25.9462 28.4689 19.842C28.5122 18.0879 31.1755 18.281 30.8587 20.0472C30.2069 26.2057 33.87 36.9103 44.2408 38.2742C57.3141 39.9931 62.8067 25.1486 59.8658 19.4276C58.1248 16.0411 3.4719 12.4182 2.19857 14.4057C-1.72102 20.5219 -1.43235 34.8223 11.7234 35.7064Z" fill="url(#paint1_linear)" fill-rule="evenodd"/><path d="M22.9599 42.6751C22.4188 43.179 21.5699 43.1488 21.066 42.6067C20.5621 42.0645 20.5922 41.2167 21.1344 40.7117C22.6622 39.2845 24.6104 38.2113 26.7356 37.8845C28.6094 37.5968 30.6099 37.8885 32.5712 39.019C33.2119 39.3871 33.4322 40.2048 33.0651 40.8455C32.697 41.4852 31.8793 41.7065 31.2386 41.3384C29.8586 40.5428 28.4515 40.3376 27.1349 40.5398C25.5749 40.7791 24.1196 41.5908 22.9599 42.6751V42.6751Z" fill="#2B2A29"/><path d="M51.4894 29.3722C51.9823 28.822 52.8281 28.7747 53.3783 29.2666C53.9285 29.7594 53.9758 30.6053 53.4829 31.1554C52.0859 32.7154 50.2412 33.9566 48.1562 34.4685C46.3086 34.9232 44.2879 34.8115 42.2391 33.861C41.5672 33.5513 41.2736 32.7547 41.5833 32.0828C41.8941 31.4099 42.6907 31.1162 43.3626 31.427C44.813 32.0999 46.2301 32.1814 47.5155 31.8655C49.0534 31.4884 50.4313 30.552 51.4894 29.3722V29.3722Z" fill="#444545"/><path d="M18.8575 26.2734C19.278 25.6649 20.1118 25.512 20.7203 25.9325C21.3288 26.3529 21.4817 27.1867 21.0612 27.7952C19.8664 29.5171 18.1877 30.9785 16.1811 31.7439C14.4069 32.4218 12.3883 32.5596 10.2328 31.8687C9.52879 31.6424 9.14156 30.888 9.36686 30.184C9.59316 29.4799 10.3475 29.0927 11.0516 29.318C12.5693 29.8048 13.9855 29.7092 15.2266 29.2355C16.7041 28.6712 17.9553 27.5739 18.8575 26.2734Z" fill="#444545"/><defs><radialGradient cx="0" cy="0" gradientTransform="translate(38.3921 23.6091) rotate(180) scale(128.792)" gradientUnits="userSpaceOnUse" id="paint0_radial" r="1"><stop stop-color="#FFE28E"/><stop offset="1" stop-color="#F9B86C"/></radialGradient><linearGradient gradientUnits="userSpaceOnUse" id="paint1_linear" x1="25.6668" x2="32.2588" y1="59.1193" y2="9.55575"><stop stop-color="#1E1E20"/><stop offset="1" stop-color="#3B3B3B"/></linearGradient></defs></svg>