<?xml version="1.0" encoding="utf-8"?>
<!-- Uploaded to: SVG Repo, www.svgrepo.com, Generator: SVG Repo Mixer Tools -->
<svg width="800px" height="800px" viewBox="0 0 1024 1024" class="icon"  version="1.1" xmlns="http://www.w3.org/2000/svg"><path d="M819.2 883.2c0 14.08-11.52 25.6-25.6 25.6H230.4c-14.08 0-25.6-11.52-25.6-25.6V140.8c0-14.08 11.52-25.6 25.6-25.6h563.2c14.08 0 25.6 11.52 25.6 25.6v742.4z" fill="#6FB0BE" /><path d="M793.6 921.6H230.4c-21.76 0-38.4-16.64-38.4-38.4V140.8c0-21.76 16.64-38.4 38.4-38.4h563.2c21.76 0 38.4 16.64 38.4 38.4v742.4c0 21.76-16.64 38.4-38.4 38.4zM230.4 128c-7.68 0-12.8 5.12-12.8 12.8v742.4c0 7.68 5.12 12.8 12.8 12.8h563.2c7.68 0 12.8-5.12 12.8-12.8V140.8c0-7.68-5.12-12.8-12.8-12.8H230.4z" fill="#231C1C" /><path d="M716.8 448c0 14.08-11.52 25.6-25.6 25.6H332.8c-14.08 0-25.6-11.52-25.6-25.6V217.6c0-14.08 11.52-25.6 25.6-25.6h358.4c14.08 0 25.6 11.52 25.6 25.6v230.4z" fill="#F2E5CA" /><path d="M691.2 486.4H332.8c-21.76 0-38.4-16.64-38.4-38.4V217.6c0-21.76 16.64-38.4 38.4-38.4h358.4c21.76 0 38.4 16.64 38.4 38.4v230.4c0 21.76-16.64 38.4-38.4 38.4zM332.8 204.8c-7.68 0-12.8 5.12-12.8 12.8v230.4c0 7.68 5.12 12.8 12.8 12.8h358.4c7.68 0 12.8-5.12 12.8-12.8V217.6c0-7.68-5.12-12.8-12.8-12.8H332.8z" fill="#231C1C" /><path d="M716.8 806.4c0 14.08-11.52 25.6-25.6 25.6H332.8c-14.08 0-25.6-11.52-25.6-25.6V576c0-14.08 11.52-25.6 25.6-25.6h358.4c14.08 0 25.6 11.52 25.6 25.6v230.4z" fill="#F2E5CA" /><path d="M691.2 844.8H332.8c-21.76 0-38.4-16.64-38.4-38.4V576c0-21.76 16.64-38.4 38.4-38.4h358.4c21.76 0 38.4 16.64 38.4 38.4v230.4c0 21.76-16.64 38.4-38.4 38.4zM332.8 563.2c-7.68 0-12.8 5.12-12.8 12.8v230.4c0 7.68 5.12 12.8 12.8 12.8h358.4c7.68 0 12.8-5.12 12.8-12.8V576c0-7.68-5.12-12.8-12.8-12.8H332.8zM243.2 153.6h25.6v76.8h-25.6zM243.2 281.6h25.6v76.8h-25.6zM243.2 409.6h25.6v76.8h-25.6zM243.2 537.6h25.6v76.8h-25.6zM243.2 665.6h25.6v76.8h-25.6zM243.2 793.6h25.6v76.8h-25.6zM755.2 153.6h25.6v76.8h-25.6zM755.2 281.6h25.6v76.8h-25.6zM755.2 409.6h25.6v76.8h-25.6z" fill="#231C1C" /><path d="M755.2 537.6h25.6v76.8h-25.6z" fill="#231C1C" /><path d="M755.2 665.6h25.6v76.8h-25.6z" fill="#231C1C" /><path d="M755.2 793.6h25.6v76.8h-25.6z" fill="#231C1C" /></svg>