<?xml version="1.0" encoding="utf-8"?><!-- Uploaded to: SVG Repo, www.svgrepo.com, Generator: SVG Repo Mixer Tools -->
<svg fill="#a14747" width="800px" height="800px" viewBox="0 0 24 24" id="scroll-up-down" data-name="Flat Line" xmlns="http://www.w3.org/2000/svg" class="icon flat-line"><path id="secondary" d="M12.69,4.37,14.83,7.5A1,1,0,0,1,14.14,9H9.86a1,1,0,0,1-.69-1.5l2.14-3.13A.82.82,0,0,1,12.69,4.37Zm0,15.25,2.14-3.12a1,1,0,0,0-.69-1.5H9.86a1,1,0,0,0-.69,1.5l2.14,3.12A.82.82,0,0,0,12.69,19.62Z" style="fill: rgb(44, 169, 188); stroke-width: 2;"></path><path id="primary" d="M12.69,4.37,14.83,7.5A1,1,0,0,1,14.14,9H9.86a1,1,0,0,1-.69-1.5l2.14-3.13A.82.82,0,0,1,12.69,4.37Zm0,15.25,2.14-3.12a1,1,0,0,0-.69-1.5H9.86a1,1,0,0,0-.69,1.5l2.14,3.12A.82.82,0,0,0,12.69,19.62Z" style="fill: none; stroke: rgb(0, 0, 0); stroke-linecap: round; stroke-linejoin: round; stroke-width: 2;"></path></svg>